
    <svg xmlns="http://www.w3.org/2000/svg" width="1560" height="980" viewBox="0 0 1560 980">
      <defs>
        <linearGradient id="bg" x1="0" y1="0" x2="1" y2="1">
          <stop offset="0%" stop-color="#1a2842" />
          <stop offset="100%" stop-color="#0a101c" />
        </linearGradient>
      </defs>
      <rect x="0" y="0" width="1560" height="980" fill="url(#bg)" />
      
    <text x="62" y="92" fill="#e4edff" font-size="46" font-weight="700">多格式数据导出</text>
    <text x="62" y="132" fill="#9cb1d6" font-size="23">会话统计 + 历史记录 + 增量判断</text>
    <rect x="1180" y="52" width="145" height="40" rx="20" fill="#14213a" stroke="#31415f" />
    <text x="1204" y="78" fill="#9cb1d6" font-size="18">VXdaochu 2.2.5</text>
    <rect x="1338" y="52" width="160" height="40" rx="20" fill="#14213a" stroke="#31415f" />
    <text x="1365" y="78" fill="#9cb1d6" font-size="18">Dark Mode</text>
  
      
    <rect x="40" y="168" width="1480" height="772" rx="30" fill="#14213a" stroke="#31415f" />
  
      
    
      <rect x="80" y="232" width="340" height="120" rx="14" fill="#14213a" stroke="#31415f" />
      <text x="100" y="268" fill="#9cb1d6" font-size="17">会话总数</text>
      <text x="100" y="320" fill="#e4edff" font-size="36" font-weight="700">318</text>
    
      <rect x="440" y="232" width="340" height="120" rx="14" fill="#14213a" stroke="#31415f" />
      <text x="460" y="268" fill="#9cb1d6" font-size="17">总消息量</text>
      <text x="460" y="320" fill="#e4edff" font-size="36" font-weight="700">1,348,912</text>
    
      <rect x="800" y="232" width="340" height="120" rx="14" fill="#14213a" stroke="#31415f" />
      <text x="820" y="268" fill="#9cb1d6" font-size="17">最近导出</text>
      <text x="820" y="320" fill="#e4edff" font-size="36" font-weight="700">2 分钟前</text>
    
      <rect x="1160" y="232" width="340" height="120" rx="14" fill="#14213a" stroke="#31415f" />
      <text x="1180" y="268" fill="#9cb1d6" font-size="17">待同步增量</text>
      <text x="1180" y="320" fill="#e4edff" font-size="36" font-weight="700">+168</text>
    
    
      <rect x="80" y="378" width="96" height="40" rx="20" fill="#23395f" stroke="#31415f" />
      <text x="104" y="404" fill="#9cb1d6" font-size="17">JSON</text>
    
      <rect x="192" y="378" width="96" height="40" rx="20" fill="#23395f" stroke="#31415f" />
      <text x="216" y="404" fill="#9cb1d6" font-size="17">HTML</text>
    
      <rect x="304" y="378" width="96" height="40" rx="20" fill="#23395f" stroke="#31415f" />
      <text x="328" y="404" fill="#9cb1d6" font-size="17">CSV</text>
    
      <rect x="416" y="378" width="96" height="40" rx="20" fill="#23395f" stroke="#31415f" />
      <text x="440" y="404" fill="#9cb1d6" font-size="17">Excel</text>
    
      <rect x="528" y="378" width="96" height="40" rx="20" fill="#23395f" stroke="#31415f" />
      <text x="552" y="404" fill="#9cb1d6" font-size="17">SQL</text>
    
      <rect x="640" y="378" width="96" height="40" rx="20" fill="#23395f" stroke="#31415f" />
      <text x="664" y="404" fill="#9cb1d6" font-size="17">VCF</text>
    
      <rect x="752" y="378" width="96" height="40" rx="20" fill="#23395f" stroke="#31415f" />
      <text x="776" y="404" fill="#9cb1d6" font-size="17">ChatLab</text>
    
    <rect x="80" y="454" width="1400" height="438" rx="14" fill="#14213a" stroke="#31415f" />
    <rect x="80" y="454" width="1400" height="70" rx="14" fill="#23395f" />
    <text x="104" y="500" fill="#9cb1d6" font-size="18">账号</text>
    <text x="430" y="500" fill="#9cb1d6" font-size="18">消息总数</text>
    <text x="660" y="500" fill="#9cb1d6" font-size="18">增量</text>
    <text x="860" y="500" fill="#9cb1d6" font-size="18">导出格式</text>
    <text x="1180" y="500" fill="#9cb1d6" font-size="18">最近导出</text>
    
      <line x1="80" y1="526" x2="1480" y2="526" stroke="#31415f" />
      <text x="104" y="580" fill="#e4edff" font-size="22">wxid_a71k2</text>
      <text x="430" y="580" fill="#e4edff" font-size="22">18,243</text>
      <text x="660" y="580" fill="#34d399" font-size="22" font-weight="700">+126</text>
      <text x="860" y="580" fill="#e4edff" font-size="22">HTML + JSON</text>
      <text x="1180" y="580" fill="#9cb1d6" font-size="22">2026-03-01 23:12</text>
    
      <line x1="80" y1="632" x2="1480" y2="632" stroke="#31415f" />
      <text x="104" y="686" fill="#e4edff" font-size="22">wxid_team88</text>
      <text x="430" y="686" fill="#e4edff" font-size="22">5,231</text>
      <text x="660" y="686" fill="#9cb1d6" font-size="22" font-weight="700">+0</text>
      <text x="860" y="686" fill="#e4edff" font-size="22">CSV</text>
      <text x="1180" y="686" fill="#9cb1d6" font-size="22">2026-02-28 18:46</text>
    
      <line x1="80" y1="738" x2="1480" y2="738" stroke="#31415f" />
      <text x="104" y="792" fill="#e4edff" font-size="22">wxid_family9</text>
      <text x="430" y="792" fill="#e4edff" font-size="22">14,052</text>
      <text x="660" y="792" fill="#34d399" font-size="22" font-weight="700">+42</text>
      <text x="860" y="792" fill="#e4edff" font-size="22">Excel + VCF</text>
      <text x="1180" y="792" fill="#9cb1d6" font-size="22">2026-03-01 09:03</text>
    
  
    </svg>
  