
    <svg xmlns="http://www.w3.org/2000/svg" width="1660" height="980" viewBox="0 0 1660 980">
      
    <defs>
      <linearGradient id="bg" x1="0" y1="0" x2="1" y2="1">
        <stop offset="0%" stop-color="#1a1816" />
        <stop offset="100%" stop-color="#252220" />
      </linearGradient>
      <linearGradient id="titlebar" x1="0" y1="0" x2="0" y2="1">
        <stop offset="0%" stop-color="#2f2a26" stop-opacity="0.7" />
        <stop offset="100%" stop-color="#2f2a26" stop-opacity="0.45" />
      </linearGradient>
    </defs>

    <rect x="0" y="0" width="1660" height="980" fill="url(#bg)" />

    <rect x="16" y="16" width="1628" height="948" rx="24" fill="rgba(34,30,27,0.78)" stroke="rgba(255,255,255,0.1)" />

    <rect x="24" y="24" width="140" height="932" rx="18" fill="rgba(40,36,32,0.9)" stroke="rgba(255,255,255,0.1)" />
    <text x="52" y="70" fill="#C9A86C" font-size="24" font-weight="700">VX</text>
    <text x="82" y="70" fill="#F0EEE9" font-size="16" font-weight="600">daochu</text>
    <text x="32" y="98" fill="#807d78" font-size="11">core preview</text>
    
      <rect x="32" y="134" width="124" height="44" rx="22" fill="transparent" />
      <circle cx="52" cy="156" r="7" fill="#b3b0aa" />
      <text x="68" y="162" fill="#b3b0aa" font-size="14" font-weight="500">导出数据</text>
    
      <rect x="32" y="192" width="124" height="44" rx="22" fill="transparent" />
      <circle cx="52" cy="214" r="7" fill="#b3b0aa" />
      <text x="68" y="220" fill="#b3b0aa" font-size="14" font-weight="500">聊天记录</text>
    
      <rect x="32" y="250" width="124" height="44" rx="22" fill="transparent" />
      <circle cx="52" cy="272" r="7" fill="#b3b0aa" />
      <text x="68" y="278" fill="#b3b0aa" font-size="14" font-weight="500">朋友圈</text>
    
      <rect x="32" y="308" width="124" height="44" rx="22" fill="#C9A86C" />
      <circle cx="52" cy="330" r="7" fill="#ffffff" />
      <text x="68" y="336" fill="#ffffff" font-size="14" font-weight="500">数据管理</text>
    
      <rect x="32" y="366" width="124" height="44" rx="22" fill="transparent" />
      <circle cx="52" cy="388" r="7" fill="#b3b0aa" />
      <text x="68" y="394" fill="#b3b0aa" font-size="14" font-weight="500">设置</text>
    

    <rect x="180" y="24" width="1456" height="932" rx="18" fill="rgba(40,36,32,0.9)" stroke="rgba(255,255,255,0.1)" />
    <rect x="180" y="24" width="1456" height="84" rx="18" fill="url(#titlebar)" />
    <circle cx="208" cy="53" r="6" fill="#fb7185" opacity="0.85" />
    <circle cx="228" cy="53" r="6" fill="#fbbf24" opacity="0.85" />
    <circle cx="248" cy="53" r="6" fill="#34d399" opacity="0.85" />

    <text x="286" y="61" fill="#F0EEE9" font-size="21" font-weight="600">数据管理与解密</text>
    <text x="286" y="87" fill="#b3b0aa" font-size="13">数据库状态、批量解密进度与缓存路径管理</text>

    <rect x="1420" y="40" width="88" height="30" rx="15" fill="rgba(201,168,108,0.2)" stroke="rgba(255,255,255,0.1)" />
    <text x="1438" y="60" fill="#C9A86C" font-size="12" font-weight="600">Cloud</text>
    <rect x="1516" y="40" width="104" height="30" rx="15" fill="rgba(201,168,108,0.2)" stroke="rgba(255,255,255,0.1)" />
    <text x="1534" y="60" fill="#C9A86C" font-size="12" font-weight="600">Dark Mode</text>
  
      
    <rect x="198" y="124" width="1438" height="820" rx="14" fill="#2f2a26" fill-opacity="0.74" stroke="rgba(255,255,255,0.1)" />

    <rect x="222" y="146" width="128" height="34" rx="17" fill="#C9A86C" />
    <text x="264" y="168" fill="#fff" font-size="12" font-weight="600">数据库</text>
    <rect x="360" y="146" width="128" height="34" rx="17" fill="rgba(201,168,108,0.2)" stroke="rgba(255,255,255,0.1)" />
    <text x="397" y="168" fill="#C9A86C" font-size="12" font-weight="600">图片解密</text>

    <rect x="222" y="204" width="1390" height="132" rx="12" fill="rgba(201,168,108,0.2)" stroke="rgba(255,255,255,0.1)" />
    <text x="246" y="238" fill="#F0EEE9" font-size="15" font-weight="600">解密进度总览</text>
    <rect x="246" y="254" width="1342" height="16" rx="8" fill="#2f2a26" stroke="rgba(255,255,255,0.1)" />
    <rect x="246" y="254" width="980" height="16" rx="8" fill="#C9A86C" />
    <text x="246" y="298" fill="#b3b0aa" font-size="12">当前任务：图片批量解密（2,184 / 3,000，预计剩余 3 分钟）</text>

    <rect x="222" y="356" width="706" height="564" rx="12" fill="#2f2a26" stroke="rgba(255,255,255,0.1)" />
    <text x="246" y="386" fill="#F0EEE9" font-size="14" font-weight="600">数据库列表</text>
    
      <rect x="222" y="388" width="684" height="60" rx="10" fill="#2f2a26" stroke="rgba(255,255,255,0.1)" />
      <text x="246" y="412" fill="#F0EEE9" font-size="13" font-weight="600">MSG0.db</text>
      <text x="246" y="432" fill="#b3b0aa" font-size="11">缓存文件大小：12.8 MB</text>
      <rect x="790" y="404" width="90" height="28" rx="14" fill="rgba(201,168,108,0.2)" />
      <text x="816" y="422" fill="#34d399" font-size="12">已解密</text>
    
      <rect x="222" y="462" width="684" height="60" rx="10" fill="#2f2a26" stroke="rgba(255,255,255,0.1)" />
      <text x="246" y="486" fill="#F0EEE9" font-size="13" font-weight="600">MediaMSG0.db</text>
      <text x="246" y="506" fill="#b3b0aa" font-size="11">缓存文件大小：84.3 MB</text>
      <rect x="790" y="478" width="90" height="28" rx="14" fill="rgba(201,168,108,0.2)" />
      <text x="816" y="496" fill="#fbbf24" font-size="12">需更新</text>
    
      <rect x="222" y="536" width="684" height="60" rx="10" fill="#2f2a26" stroke="rgba(255,255,255,0.1)" />
      <text x="246" y="560" fill="#F0EEE9" font-size="13" font-weight="600">MicroMsg.db</text>
      <text x="246" y="580" fill="#b3b0aa" font-size="11">缓存文件大小：63.1 MB</text>
      <rect x="790" y="552" width="90" height="28" rx="14" fill="rgba(201,168,108,0.2)" />
      <text x="816" y="570" fill="#34d399" font-size="12">已解密</text>
    
      <rect x="222" y="610" width="684" height="60" rx="10" fill="#2f2a26" stroke="rgba(255,255,255,0.1)" />
      <text x="246" y="634" fill="#F0EEE9" font-size="13" font-weight="600">OpenIMContact.db</text>
      <text x="246" y="654" fill="#b3b0aa" font-size="11">缓存文件大小：1.3 MB</text>
      <rect x="790" y="626" width="90" height="28" rx="14" fill="rgba(201,168,108,0.2)" />
      <text x="816" y="644" fill="#807d78" font-size="12">待处理</text>
    

    <rect x="948" y="356" width="664" height="280" rx="12" fill="#2f2a26" stroke="rgba(255,255,255,0.1)" />
    <text x="972" y="386" fill="#F0EEE9" font-size="14" font-weight="600">图片解密任务</text>
    <rect x="972" y="406" width="616" height="58" rx="10" fill="rgba(201,168,108,0.2)" stroke="rgba(255,255,255,0.1)" />
    <text x="996" y="431" fill="#F0EEE9" font-size="13" font-weight="600">images/2026/03</text>
    <text x="996" y="451" fill="#b3b0aa" font-size="11">成功 2,184 · 失败 12 · 排队 804</text>

    <rect x="972" y="476" width="616" height="58" rx="10" fill="#2f2a26" stroke="rgba(255,255,255,0.1)" />
    <text x="996" y="501" fill="#F0EEE9" font-size="13" font-weight="600">Emojis/2025</text>
    <text x="996" y="521" fill="#b3b0aa" font-size="11">成功 836 · 失败 0 · 已完成</text>

    <rect x="972" y="556" width="198" height="42" rx="10" fill="#C9A86C" />
    <text x="1024" y="582" fill="#fff" font-size="13" font-weight="600">开始解密</text>
    <rect x="1182" y="556" width="198" height="42" rx="10" fill="rgba(201,168,108,0.2)" stroke="rgba(255,255,255,0.1)" />
    <text x="1232" y="582" fill="#C9A86C" font-size="13" font-weight="600">增量更新</text>
    <rect x="1392" y="556" width="196" height="42" rx="10" fill="rgba(201,168,108,0.2)" stroke="rgba(255,255,255,0.1)" />
    <text x="1456" y="582" fill="#C9A86C" font-size="13" font-weight="600">切换目录</text>

    <rect x="948" y="652" width="664" height="268" rx="12" fill="#2f2a26" stroke="rgba(255,255,255,0.1)" />
    <text x="972" y="682" fill="#F0EEE9" font-size="14" font-weight="600">路径配置</text>

    <rect x="972" y="702" width="616" height="56" rx="10" fill="rgba(201,168,108,0.2)" stroke="rgba(255,255,255,0.1)" />
    <text x="996" y="726" fill="#b3b0aa" font-size="11">数据库目录</text>
    <text x="996" y="746" fill="#F0EEE9" font-size="13">D:/WeChat/Data</text>

    <rect x="972" y="770" width="616" height="56" rx="10" fill="rgba(201,168,108,0.2)" stroke="rgba(255,255,255,0.1)" />
    <text x="996" y="794" fill="#b3b0aa" font-size="11">缓存目录</text>
    <text x="996" y="814" fill="#F0EEE9" font-size="13">D:/VXdaochu/Cache</text>

    <text x="972" y="864" fill="#807d78" font-size="11">最近同步：2026-03-02 10:58 · 自动更新间隔：30 秒</text>
  
    </svg>
  