
    <svg xmlns="http://www.w3.org/2000/svg" width="1560" height="980" viewBox="0 0 1560 980">
      <defs>
        <linearGradient id="bg" x1="0" y1="0" x2="1" y2="1">
          <stop offset="0%" stop-color="#1a2842" />
          <stop offset="100%" stop-color="#0a101c" />
        </linearGradient>
      </defs>
      <rect x="0" y="0" width="1560" height="980" fill="url(#bg)" />
      
    <text x="62" y="92" fill="#e4edff" font-size="46" font-weight="700">聊天记录查看</text>
    <text x="62" y="132" fill="#9cb1d6" font-size="23">会话检索 + 消息预览 + 多媒体还原</text>
    <rect x="1180" y="52" width="145" height="40" rx="20" fill="#14213a" stroke="#31415f" />
    <text x="1204" y="78" fill="#9cb1d6" font-size="18">VXdaochu 2.2.5</text>
    <rect x="1338" y="52" width="160" height="40" rx="20" fill="#14213a" stroke="#31415f" />
    <text x="1365" y="78" fill="#9cb1d6" font-size="18">Dark Mode</text>
  
      
    <rect x="40" y="168" width="1480" height="772" rx="30" fill="#14213a" stroke="#31415f" />
  
      
    <rect x="70" y="222" width="450" height="690" rx="20" fill="#14213a" stroke="#31415f" />
    
      <rect x="80" y="242" width="430" height="100" rx="14" fill="#23395f" stroke="#31415f" />
      <circle cx="120" cy="292" r="22" fill="#5ea7ff" />
      <text x="158" y="282" fill="#e4edff" font-size="22" font-weight="600">产品讨论群</text>
      <text x="158" y="315" fill="#9cb1d6" font-size="18">导出目录已经按账号隔离好了</text>
      <text x="460" y="282" fill="#9cb1d6" font-size="16">10:42</text>
      <rect x="468" y="300" width="34" height="26" rx="13" fill="#f43f5e" /><text x="479" y="318" fill="#fff" font-size="14">3</text>
    
      <rect x="80" y="358" width="430" height="100" rx="14" fill="transparent" stroke="#31415f" />
      <circle cx="120" cy="408" r="22" fill="#5ea7ff" />
      <text x="158" y="398" fill="#e4edff" font-size="22" font-weight="600">陈小北</text>
      <text x="158" y="431" fill="#9cb1d6" font-size="18">周报我晚点补上</text>
      <text x="460" y="398" fill="#9cb1d6" font-size="16">09:58</text>
      
    
      <rect x="80" y="474" width="430" height="100" rx="14" fill="transparent" stroke="#31415f" />
      <circle cx="120" cy="524" r="22" fill="#5ea7ff" />
      <text x="158" y="514" fill="#e4edff" font-size="22" font-weight="600">家人群</text>
      <text x="158" y="547" fill="#9cb1d6" font-size="18">[图片] 周末聚会安排</text>
      <text x="460" y="514" fill="#9cb1d6" font-size="16">昨天</text>
      <rect x="468" y="532" width="34" height="26" rx="13" fill="#f43f5e" /><text x="479" y="550" fill="#fff" font-size="14">12</text>
    
      <rect x="80" y="590" width="430" height="100" rx="14" fill="transparent" stroke="#31415f" />
      <circle cx="120" cy="640" r="22" fill="#5ea7ff" />
      <text x="158" y="630" fill="#e4edff" font-size="22" font-weight="600">设计协作</text>
      <text x="158" y="663" fill="#9cb1d6" font-size="18">这版卡片阴影更舒服</text>
      <text x="460" y="630" fill="#9cb1d6" font-size="16">昨天</text>
      
    

    <rect x="540" y="222" width="940" height="690" rx="20" fill="#14213a" stroke="#31415f" />
    <rect x="944" y="246" width="132" height="34" rx="17" fill="#23395f" stroke="#31415f" />
    <text x="971" y="270" fill="#9cb1d6" font-size="17">2026-03-02</text>

    <rect x="580" y="316" width="420" height="64" rx="16" fill="#23395f" stroke="#31415f" />
    <text x="604" y="355" fill="#e4edff" font-size="21">导出前能看到历史记录吗？</text>

    <rect x="836" y="408" width="610" height="64" rx="16" fill="#23395f" stroke="#31415f" />
    <text x="860" y="447" fill="#e4edff" font-size="21">可以，会展示每次导出时间和消息增量。</text>

    <rect x="580" y="500" width="420" height="64" rx="16" fill="#23395f" stroke="#31415f" />
    <text x="604" y="539" fill="#e4edff" font-size="21">那我想先看最近 30 天。</text>

    <rect x="760" y="592" width="686" height="64" rx="16" fill="#23395f" stroke="#31415f" />
    <text x="784" y="631" fill="#e4edff" font-size="21">已支持日期筛选，语音/图片也能单独导出。</text>

    <rect x="580" y="820" width="740" height="58" rx="12" fill="#14213a" stroke="#31415f" />
    <text x="604" y="856" fill="#9cb1d6" font-size="19">请输入关键词搜索历史消息...</text>
    <rect x="1338" y="820" width="108" height="58" rx="12" fill="#5ea7ff" />
    <text x="1372" y="856" fill="#fff" font-size="21">发送</text>
  
    </svg>
  