
    <svg xmlns="http://www.w3.org/2000/svg" width="1660" height="980" viewBox="0 0 1660 980">
      <defs>
        <linearGradient id="bg" x1="0" y1="0" x2="1" y2="1">
          <stop offset="0%" stop-color="#F0EEE9" />
          <stop offset="100%" stop-color="#E8E6E1" />
        </linearGradient>
      </defs>
      <rect x="0" y="0" width="1660" height="980" fill="url(#bg)" />
      
    <rect x="16" y="16" width="140" height="948" rx="16" fill="rgba(255, 255, 255, 0.7)" stroke="rgba(0, 0, 0, 0.08)" />
    <text x="36" y="56" fill="#8B7355" font-size="22" font-weight="700">VX</text>
    <text x="68" y="56" fill="#3d3d3d" font-size="14" font-weight="600">daochu</text>

    
    <rect x="24" y="132" width="124" height="40" rx="20" fill="#8B7355" />
    <circle cx="40" cy="152" r="6" fill="#fff" />
    <text x="56" y="157" fill="#fff" font-size="14" font-weight="500">导出</text>
    
  
    
    <rect x="24" y="182" width="124" height="40" rx="20" fill="transparent" />
    <circle cx="40" cy="202" r="6" fill="#666666" />
    <text x="56" y="207" fill="#666666" font-size="14" font-weight="500">任务</text>
    <rect x="122" y="192" width="18" height="18" rx="9" fill="#8B7355" /><text x="128" y="205" fill="#fff" font-size="10" font-weight="700">2</text>
  

    <line x1="24" y1="852" x2="148" y2="852" stroke="rgba(0, 0, 0, 0.08)" />
    
    <rect x="24" y="868" width="124" height="40" rx="20" fill="transparent" />
    <circle cx="40" cy="888" r="6" fill="#666666" />
    <text x="56" y="893" fill="#666666" font-size="14" font-weight="500">设置</text>
    
  
    
    <rect x="24" y="914" width="124" height="40" rx="20" fill="transparent" />
    <circle cx="40" cy="934" r="6" fill="#666666" />
    <text x="56" y="939" fill="#666666" font-size="14" font-weight="500">dark</text>
    
  
  
    <rect x="156" y="16" width="1488" height="38" rx="12" fill="rgba(0, 0, 0, 0.03)" stroke="rgba(0, 0, 0, 0.08)" />
    <circle cx="170" cy="35" r="4" fill="#ef4444" />
    <circle cx="184" cy="35" r="4" fill="#d97706" />
    <circle cx="198" cy="35" r="4" fill="#16a34a" />
    <text x="218" y="34" fill="#3d3d3d" font-size="14" font-weight="600">导出数据主界面（已选中会话）</text>
    <text x="218" y="47" fill="#666666" font-size="10">路由 /export：默认仅列表，选中会话后显示详情抽屉</text>
  
    <rect x="156" y="54" width="1488" height="910" fill="rgba(255, 255, 255, 0.7)" stroke="rgba(0, 0, 0, 0.08)" />

    <rect x="156" y="54" width="1488" height="150" fill="rgba(255, 255, 255, 0.7)" stroke="rgba(0, 0, 0, 0.08)" />
    <rect x="176" y="70" width="40" height="40" rx="10" fill="rgba(255, 255, 255, 0.7)" stroke="rgba(0, 0, 0, 0.08)" />
    <text x="188" y="96" fill="#666666" font-size="13">我</text>
    <text x="228" y="89" fill="#3d3d3d" font-size="14" font-weight="600">当前账号（已连接数据库）</text>
    <text x="228" y="110" fill="#666666" font-size="11">微信号: vx_demo · wxid: wxid_demo_2026</text>
    <text x="228" y="132" fill="#16a34a" font-size="11">已连接数据库 · 数据管理 · 导出目录 D:/VXdaochu/Export</text>

    
      <rect x="1160" y="68" width="150" height="46" rx="10" fill="#F0EEE9" stroke="rgba(0, 0, 0, 0.08)" />
      <text x="1170" y="86" fill="#666666" font-size="10">聊天文本</text>
      <text x="1170" y="102" fill="#3d3d3d" font-size="12" font-weight="600">1,284 / 6,204</text>
      <rect x="1264" y="94" width="36" height="14" rx="7" fill="rgba(139, 115, 85, 0.1)" />
      <text x="1276" y="104" fill="#8B7355" font-size="9">导出</text>
    
      <rect x="1318" y="68" width="150" height="46" rx="10" fill="#F0EEE9" stroke="rgba(0, 0, 0, 0.08)" />
      <text x="1328" y="86" fill="#666666" font-size="10">表情包</text>
      <text x="1328" y="102" fill="#3d3d3d" font-size="12" font-weight="600">1,284 / 6,204</text>
      <rect x="1422" y="94" width="36" height="14" rx="7" fill="rgba(139, 115, 85, 0.1)" />
      <text x="1434" y="104" fill="#8B7355" font-size="9">导出</text>
    
      <rect x="1476" y="68" width="150" height="46" rx="10" fill="#F0EEE9" stroke="rgba(0, 0, 0, 0.08)" />
      <text x="1486" y="86" fill="#666666" font-size="10">语音</text>
      <text x="1486" y="102" fill="#3d3d3d" font-size="12" font-weight="600">1,284 / 6,204</text>
      <rect x="1580" y="94" width="36" height="14" rx="7" fill="rgba(139, 115, 85, 0.1)" />
      <text x="1592" y="104" fill="#8B7355" font-size="9">导出</text>
    
      <rect x="1160" y="122" width="150" height="46" rx="10" fill="#F0EEE9" stroke="rgba(0, 0, 0, 0.08)" />
      <text x="1170" y="140" fill="#666666" font-size="10">图片</text>
      <text x="1170" y="156" fill="#3d3d3d" font-size="12" font-weight="600">1,284 / 6,204</text>
      <rect x="1264" y="148" width="36" height="14" rx="7" fill="rgba(139, 115, 85, 0.1)" />
      <text x="1276" y="158" fill="#8B7355" font-size="9">导出</text>
    
      <rect x="1318" y="122" width="150" height="46" rx="10" fill="#F0EEE9" stroke="rgba(0, 0, 0, 0.08)" />
      <text x="1328" y="140" fill="#666666" font-size="10">视频</text>
      <text x="1328" y="156" fill="#3d3d3d" font-size="12" font-weight="600">1,284 / 6,204</text>
      <rect x="1422" y="148" width="36" height="14" rx="7" fill="rgba(139, 115, 85, 0.1)" />
      <text x="1434" y="158" fill="#8B7355" font-size="9">导出</text>
    
      <rect x="1476" y="122" width="150" height="46" rx="10" fill="#F0EEE9" stroke="rgba(0, 0, 0, 0.08)" />
      <text x="1486" y="140" fill="#666666" font-size="10">朋友圈</text>
      <text x="1486" y="156" fill="#3d3d3d" font-size="12" font-weight="600">1,284 / 6,204</text>
      <rect x="1580" y="148" width="36" height="14" rx="7" fill="rgba(139, 115, 85, 0.1)" />
      <text x="1592" y="158" fill="#8B7355" font-size="9">导出</text>
    

    <rect x="156" y="204" width="1488" height="86" fill="rgba(255, 255, 255, 0.7)" stroke="rgba(0, 0, 0, 0.08)" />
    
      <rect x="178" y="222" width="86" height="32" rx="16" fill="#8B7355" stroke="rgba(0, 0, 0, 0.08)" />
      <text x="208" y="243" fill="#fff" font-size="11" font-weight="600">私聊</text>
    
      <rect x="272" y="222" width="86" height="32" rx="16" fill="rgba(0, 0, 0, 0.03)" stroke="rgba(0, 0, 0, 0.08)" />
      <text x="302" y="243" fill="#666666" font-size="11" font-weight="600">群聊</text>
    
      <rect x="366" y="222" width="86" height="32" rx="16" fill="rgba(0, 0, 0, 0.03)" stroke="rgba(0, 0, 0, 0.08)" />
      <text x="396" y="243" fill="#666666" font-size="11" font-weight="600">公众号</text>
    
    <rect x="474" y="222" width="1150" height="32" rx="8" fill="rgba(0, 0, 0, 0.03)" stroke="rgba(0, 0, 0, 0.08)" />
    <text x="488" y="243" fill="#999999" font-size="11">搜索联系人或群组...</text>
    <text x="178" y="272" fill="#999999" font-size="10">提示：默认仅显示会话列表，点击会话后弹出右侧详情抽屉</text>

    <rect x="164" y="290" width="1472" height="662" rx="10" fill="rgba(0, 0, 0, 0.03)" stroke="rgba(0, 0, 0, 0.08)" />
    <rect x="168" y="300" width="1464" height="34" rx="8" fill="rgba(139, 115, 85, 0.1)" />
    <text x="180" y="321" fill="#666666" font-size="10">会话</text>
    <text x="442" y="321" fill="#666666" font-size="10">类型</text>
    <text x="528" y="321" fill="#666666" font-size="10">消息数</text>
    <text x="624" y="321" fill="#666666" font-size="10">增量</text>
    <text x="718" y="321" fill="#666666" font-size="10">最近导出</text>
    
      <line x1="168" y1="334" x2="1632" y2="334" stroke="rgba(0, 0, 0, 0.08)" />
      <text x="180" y="372" fill="#3d3d3d" font-size="12" font-weight="600">产品讨论群</text>
      <text x="442" y="372" fill="#666666" font-size="11">群聊</text>
      <text x="528" y="372" fill="#3d3d3d" font-size="11">32,984</text>
      <text x="624" y="372" fill="#16a34a" font-size="11" font-weight="600">+128</text>
      <text x="718" y="372" fill="#666666" font-size="11">2026-03-01 23:12</text>
    
      <line x1="168" y1="396" x2="1632" y2="396" stroke="rgba(0, 0, 0, 0.08)" />
      <text x="180" y="434" fill="#3d3d3d" font-size="12" font-weight="500">陈小北</text>
      <text x="442" y="434" fill="#666666" font-size="11">私聊</text>
      <text x="528" y="434" fill="#3d3d3d" font-size="11">8,214</text>
      <text x="624" y="434" fill="#999999" font-size="11" font-weight="600">+0</text>
      <text x="718" y="434" fill="#666666" font-size="11">2026-03-01 18:46</text>
    
      <line x1="168" y1="458" x2="1632" y2="458" stroke="rgba(0, 0, 0, 0.08)" />
      <text x="180" y="496" fill="#3d3d3d" font-size="12" font-weight="500">家人群</text>
      <text x="442" y="496" fill="#666666" font-size="11">群聊</text>
      <text x="528" y="496" fill="#3d3d3d" font-size="11">14,502</text>
      <text x="624" y="496" fill="#16a34a" font-size="11" font-weight="600">+42</text>
      <text x="718" y="496" fill="#666666" font-size="11">2026-03-01 09:03</text>
    
      <line x1="168" y1="520" x2="1632" y2="520" stroke="rgba(0, 0, 0, 0.08)" />
      <text x="180" y="558" fill="#3d3d3d" font-size="12" font-weight="500">Arkme 项目组</text>
      <text x="442" y="558" fill="#666666" font-size="11">群聊</text>
      <text x="528" y="558" fill="#3d3d3d" font-size="11">22,306</text>
      <text x="624" y="558" fill="#16a34a" font-size="11" font-weight="600">+87</text>
      <text x="718" y="558" fill="#666666" font-size="11">2026-02-28 21:50</text>
    
      <line x1="168" y1="582" x2="1632" y2="582" stroke="rgba(0, 0, 0, 0.08)" />
      <text x="180" y="620" fill="#3d3d3d" font-size="12" font-weight="500">技术支持</text>
      <text x="442" y="620" fill="#666666" font-size="11">私聊</text>
      <text x="528" y="620" fill="#3d3d3d" font-size="11">4,299</text>
      <text x="624" y="620" fill="#16a34a" font-size="11" font-weight="600">+13</text>
      <text x="718" y="620" fill="#666666" font-size="11">2026-02-28 16:31</text>
    

    
      <rect x="156" y="54" width="1488" height="910" fill="rgba(15, 23, 42, 0.12)" />
      <rect x="874" y="64" width="760" height="890" rx="16" fill="rgba(255, 255, 255, 0.7)" stroke="rgba(0, 0, 0, 0.08)" />
      <circle cx="1610" cy="84" r="14" fill="rgba(255, 255, 255, 0.7)" stroke="rgba(0, 0, 0, 0.08)" />
      <text x="1606" y="88" fill="#666666" font-size="14">×</text>

      <rect x="892" y="74" width="704" height="84" rx="12" fill="rgba(139, 115, 85, 0.1)" stroke="rgba(0, 0, 0, 0.08)" />
      <text x="908" y="104" fill="#3d3d3d" font-size="14" font-weight="600">产品讨论群</text>
      <text x="908" y="124" fill="#666666" font-size="11">wxid: wxid_team_product_2026 · 最近导出 2026-03-01 23:12</text>

      <rect x="892" y="170" width="724" height="148" rx="10" fill="rgba(0, 0, 0, 0.03)" stroke="rgba(0, 0, 0, 0.08)" />
      <text x="908" y="200" fill="#3d3d3d" font-size="13" font-weight="600">会话详情与导出设置</text>
      <text x="908" y="222" fill="#666666" font-size="11">消息总数：32,984 · 图片：2,143 · 视频：132 · 语音：418 · 表情：265</text>
      <text x="908" y="242" fill="#666666" font-size="11">格式：JSON / HTML / CSV / Excel / SQL / VCF / ChatLab</text>
      <text x="908" y="262" fill="#666666" font-size="11">时间范围：2024-01-01 至 2026-03-02 · 跳过规则：无新增则跳过</text>

      <rect x="908" y="278" width="138" height="34" rx="8" fill="#8B7355" />
      <text x="948" y="300" fill="#fff" font-size="12" font-weight="600">导出此会话</text>

      <rect x="892" y="332" width="724" height="604" rx="10" fill="rgba(0, 0, 0, 0.03)" stroke="rgba(0, 0, 0, 0.08)" />
      <text x="908" y="362" fill="#3d3d3d" font-size="13" font-weight="600">最近导出记录</text>
      <text x="908" y="384" fill="#666666" font-size="11">2026-03-01 23:12 · HTML + JSON · 32,856 条</text>
      <text x="908" y="404" fill="#666666" font-size="11">2026-02-28 20:45 · CSV · 32,721 条</text>
    
  
    </svg>
  