
    <svg xmlns="http://www.w3.org/2000/svg" width="1660" height="980" viewBox="0 0 1660 980">
      <defs>
        <linearGradient id="bg" x1="0" y1="0" x2="1" y2="1">
          <stop offset="0%" stop-color="#F0EEE9" />
          <stop offset="100%" stop-color="#E8E6E1" />
        </linearGradient>
      </defs>
      <rect x="0" y="0" width="1660" height="980" fill="url(#bg)" />
      
    <rect x="16" y="16" width="140" height="948" rx="16" fill="rgba(255, 255, 255, 0.7)" stroke="rgba(0, 0, 0, 0.08)" />
    <text x="36" y="56" fill="#8B7355" font-size="22" font-weight="700">VX</text>
    <text x="68" y="56" fill="#3d3d3d" font-size="14" font-weight="600">daochu</text>

    
    <rect x="24" y="132" width="124" height="40" rx="20" fill="transparent" />
    <circle cx="40" cy="152" r="6" fill="#666666" />
    <text x="56" y="157" fill="#666666" font-size="14" font-weight="500">导出</text>
    
  
    
    <rect x="24" y="182" width="124" height="40" rx="20" fill="transparent" />
    <circle cx="40" cy="202" r="6" fill="#666666" />
    <text x="56" y="207" fill="#666666" font-size="14" font-weight="500">任务</text>
    <rect x="122" y="192" width="18" height="18" rx="9" fill="#8B7355" /><text x="128" y="205" fill="#fff" font-size="10" font-weight="700">2</text>
  

    <line x1="24" y1="852" x2="148" y2="852" stroke="rgba(0, 0, 0, 0.08)" />
    
    <rect x="24" y="868" width="124" height="40" rx="20" fill="transparent" />
    <circle cx="40" cy="888" r="6" fill="#666666" />
    <text x="56" y="893" fill="#666666" font-size="14" font-weight="500">设置</text>
    
  
    
    <rect x="24" y="914" width="124" height="40" rx="20" fill="transparent" />
    <circle cx="40" cy="934" r="6" fill="#666666" />
    <text x="56" y="939" fill="#666666" font-size="14" font-weight="500">dark</text>
    
  
  
    <rect x="156" y="16" width="1488" height="38" rx="12" fill="rgba(0, 0, 0, 0.03)" stroke="rgba(0, 0, 0, 0.08)" />
    <circle cx="170" cy="35" r="4" fill="#ef4444" />
    <circle cx="184" cy="35" r="4" fill="#d97706" />
    <circle cx="198" cy="35" r="4" fill="#16a34a" />
    <text x="218" y="34" fill="#3d3d3d" font-size="14" font-weight="600">数据管理</text>
    <text x="218" y="47" fill="#666666" font-size="10">路由 /data-management（主窗口）</text>
  
    <rect x="156" y="54" width="1488" height="910" fill="rgba(255, 255, 255, 0.7)" stroke="rgba(0, 0, 0, 0.08)" />

    <rect x="172" y="68" width="100" height="30" rx="15" fill="#8B7355" />
    <text x="204" y="88" fill="#fff" font-size="12" font-weight="600">数据库</text>
    <rect x="282" y="68" width="112" height="30" rx="15" fill="rgba(139, 115, 85, 0.1)" stroke="rgba(0, 0, 0, 0.08)" />
    <text x="316" y="88" fill="#8B7355" font-size="12" font-weight="600">图片解密</text>

    <rect x="172" y="110" width="1456" height="112" rx="10" fill="rgba(139, 115, 85, 0.1)" stroke="rgba(0, 0, 0, 0.08)" />
    <text x="190" y="140" fill="#3d3d3d" font-size="14" font-weight="600">解密进度总览</text>
    <rect x="190" y="152" width="1420" height="12" rx="6" fill="rgba(255, 255, 255, 0.7)" stroke="rgba(0, 0, 0, 0.08)" />
    <rect x="190" y="152" width="1036" height="12" rx="6" fill="#8B7355" />
    <text x="190" y="192" fill="#666666" font-size="11">当前任务：图片批量解密（2,184 / 3,000，预计剩余 3 分钟）</text>

    <rect x="172" y="236" width="794" height="712" rx="10" fill="rgba(0, 0, 0, 0.03)" stroke="rgba(0, 0, 0, 0.08)" />
    <rect x="184" y="248" width="770" height="52" rx="8" fill="rgba(255, 255, 255, 0.7)" stroke="rgba(0, 0, 0, 0.08)" />
    <text x="196" y="270" fill="#3d3d3d" font-size="12" font-weight="600">MSG0.db</text>
    <text x="196" y="288" fill="#666666" font-size="10">12.8 MB · 已解密</text>

    <rect x="184" y="308" width="770" height="52" rx="8" fill="rgba(255, 255, 255, 0.7)" stroke="rgba(0, 0, 0, 0.08)" />
    <text x="196" y="330" fill="#3d3d3d" font-size="12" font-weight="600">MediaMSG0.db</text>
    <text x="196" y="348" fill="#666666" font-size="10">84.3 MB · 需更新</text>

    <rect x="184" y="368" width="770" height="52" rx="8" fill="rgba(255, 255, 255, 0.7)" stroke="rgba(0, 0, 0, 0.08)" />
    <text x="196" y="390" fill="#3d3d3d" font-size="12" font-weight="600">MicroMsg.db</text>
    <text x="196" y="408" fill="#666666" font-size="10">63.1 MB · 已解密</text>

    <rect x="978" y="236" width="638" height="712" rx="10" fill="rgba(0, 0, 0, 0.03)" stroke="rgba(0, 0, 0, 0.08)" />
    <text x="994" y="266" fill="#3d3d3d" font-size="13" font-weight="600">图片与路径任务</text>
    <text x="994" y="292" fill="#666666" font-size="11">images/2026/03：成功 2,184 · 失败 12 · 排队 804</text>
    <text x="994" y="314" fill="#666666" font-size="11">Emojis/2025：成功 836 · 失败 0</text>
  
    </svg>
  