
    <svg xmlns="http://www.w3.org/2000/svg" width="1660" height="980" viewBox="0 0 1660 980">
      
    <defs>
      <linearGradient id="bg" x1="0" y1="0" x2="1" y2="1">
        <stop offset="0%" stop-color="#F0EEE9" />
        <stop offset="100%" stop-color="#E8E6E1" />
      </linearGradient>
      <linearGradient id="titlebar" x1="0" y1="0" x2="0" y2="1">
        <stop offset="0%" stop-color="#FFFFFF" stop-opacity="0.7" />
        <stop offset="100%" stop-color="#FFFFFF" stop-opacity="0.45" />
      </linearGradient>
    </defs>

    <rect x="0" y="0" width="1660" height="980" fill="url(#bg)" />

    <rect x="16" y="16" width="1628" height="948" rx="24" fill="rgba(255,255,255,0.72)" stroke="rgba(0,0,0,0.08)" />

    <rect x="24" y="24" width="140" height="932" rx="18" fill="rgba(255,255,255,0.74)" stroke="rgba(0,0,0,0.08)" />
    <text x="52" y="70" fill="#8B7355" font-size="24" font-weight="700">VX</text>
    <text x="82" y="70" fill="#3d3d3d" font-size="16" font-weight="600">daochu</text>
    <text x="32" y="98" fill="#999999" font-size="11">core preview</text>
    
      <rect x="32" y="134" width="124" height="44" rx="22" fill="#8B7355" />
      <circle cx="52" cy="156" r="7" fill="#ffffff" />
      <text x="68" y="162" fill="#ffffff" font-size="14" font-weight="500">导出数据</text>
    
      <rect x="32" y="192" width="124" height="44" rx="22" fill="transparent" />
      <circle cx="52" cy="214" r="7" fill="#666666" />
      <text x="68" y="220" fill="#666666" font-size="14" font-weight="500">聊天记录</text>
    
      <rect x="32" y="250" width="124" height="44" rx="22" fill="transparent" />
      <circle cx="52" cy="272" r="7" fill="#666666" />
      <text x="68" y="278" fill="#666666" font-size="14" font-weight="500">朋友圈</text>
    
      <rect x="32" y="308" width="124" height="44" rx="22" fill="transparent" />
      <circle cx="52" cy="330" r="7" fill="#666666" />
      <text x="68" y="336" fill="#666666" font-size="14" font-weight="500">数据管理</text>
    
      <rect x="32" y="366" width="124" height="44" rx="22" fill="transparent" />
      <circle cx="52" cy="388" r="7" fill="#666666" />
      <text x="68" y="394" fill="#666666" font-size="14" font-weight="500">设置</text>
    

    <rect x="180" y="24" width="1456" height="932" rx="18" fill="rgba(255,255,255,0.84)" stroke="rgba(0,0,0,0.08)" />
    <rect x="180" y="24" width="1456" height="84" rx="18" fill="url(#titlebar)" />
    <circle cx="208" cy="53" r="6" fill="#ef4444" opacity="0.85" />
    <circle cx="228" cy="53" r="6" fill="#d97706" opacity="0.85" />
    <circle cx="248" cy="53" r="6" fill="#16a34a" opacity="0.85" />

    <text x="286" y="61" fill="#3d3d3d" font-size="21" font-weight="600">多格式数据导出</text>
    <text x="286" y="87" fill="#666666" font-size="13">会话筛选、导出统计、增量判断与格式配置</text>

    <rect x="1420" y="40" width="88" height="30" rx="15" fill="rgba(139,115,85,0.12)" stroke="rgba(0,0,0,0.08)" />
    <text x="1438" y="60" fill="#8B7355" font-size="12" font-weight="600">Cloud</text>
    <rect x="1516" y="40" width="104" height="30" rx="15" fill="rgba(139,115,85,0.12)" stroke="rgba(0,0,0,0.08)" />
    <text x="1534" y="60" fill="#8B7355" font-size="12" font-weight="600">Light Mode</text>
  
      
    <rect x="198" y="124" width="536" height="820" rx="14" fill="#FFFFFF" fill-opacity="0.74" stroke="rgba(0,0,0,0.08)" />
    <text x="222" y="160" fill="#3d3d3d" font-size="15" font-weight="600">会话列表</text>
    <rect x="306" y="138" width="180" height="28" rx="14" fill="rgba(139,115,85,0.12)" />
    <text x="320" y="157" fill="#8B7355" font-size="11">仅群聊和私聊 · 排除公众号</text>

    <rect x="216" y="182" width="500" height="56" rx="10" fill="rgba(139,115,85,0.12)" stroke="rgba(0,0,0,0.08)" />
    <text x="236" y="205" fill="#666666" font-size="12">关键词筛选</text>
    <text x="236" y="224" fill="#3d3d3d" font-size="13">产品 / 导出 / 增量</text>

    <rect x="216" y="256" width="506" height="660" rx="10" fill="#FFFFFF" stroke="rgba(0,0,0,0.08)" />
    <rect x="216" y="256" width="506" height="44" rx="10" fill="rgba(139,115,85,0.12)" />
    <text x="228" y="284" fill="#999999" font-size="11">会话</text>
    <text x="430" y="284" fill="#999999" font-size="11">类型</text>
    <text x="500" y="284" fill="#999999" font-size="11">消息</text>
    <text x="576" y="284" fill="#999999" font-size="11">增量</text>
    <text x="634" y="284" fill="#999999" font-size="11">格式</text>
    
      <line x1="216" y1="328" x2="722" y2="328" stroke="rgba(0,0,0,0.08)" />
      <text x="228" y="372" fill="#3d3d3d" font-size="13">产品讨论群</text>
      <text x="430" y="372" fill="#666666" font-size="12">群聊</text>
      <text x="500" y="372" fill="#3d3d3d" font-size="12">32,984</text>
      <text x="576" y="372" fill="#16a34a" font-size="12" font-weight="600">+128</text>
      <text x="634" y="372" fill="#666666" font-size="12">HTML/JSON</text>
    
      <line x1="216" y1="402" x2="722" y2="402" stroke="rgba(0,0,0,0.08)" />
      <text x="228" y="446" fill="#3d3d3d" font-size="13">陈小北</text>
      <text x="430" y="446" fill="#666666" font-size="12">私聊</text>
      <text x="500" y="446" fill="#3d3d3d" font-size="12">8,214</text>
      <text x="576" y="446" fill="#999999" font-size="12" font-weight="600">+0</text>
      <text x="634" y="446" fill="#666666" font-size="12">CSV</text>
    
      <line x1="216" y1="476" x2="722" y2="476" stroke="rgba(0,0,0,0.08)" />
      <text x="228" y="520" fill="#3d3d3d" font-size="13">家人群</text>
      <text x="430" y="520" fill="#666666" font-size="12">群聊</text>
      <text x="500" y="520" fill="#3d3d3d" font-size="12">14,502</text>
      <text x="576" y="520" fill="#16a34a" font-size="12" font-weight="600">+42</text>
      <text x="634" y="520" fill="#666666" font-size="12">Excel</text>
    
      <line x1="216" y1="550" x2="722" y2="550" stroke="rgba(0,0,0,0.08)" />
      <text x="228" y="594" fill="#3d3d3d" font-size="13">Arkme 项目组</text>
      <text x="430" y="594" fill="#666666" font-size="12">群聊</text>
      <text x="500" y="594" fill="#3d3d3d" font-size="12">22,306</text>
      <text x="576" y="594" fill="#16a34a" font-size="12" font-weight="600">+87</text>
      <text x="634" y="594" fill="#666666" font-size="12">HTML</text>
    

    <rect x="750" y="124" width="868" height="820" rx="14" fill="#FFFFFF" fill-opacity="0.74" stroke="rgba(0,0,0,0.08)" />

    <rect x="774" y="148" width="820" height="110" rx="12" fill="rgba(139,115,85,0.12)" stroke="rgba(0,0,0,0.08)" />
    <circle cx="812" cy="203" r="22" fill="#8B7355" />
    <text x="803" y="210" fill="#fff" font-size="15" font-weight="700">群</text>
    <text x="846" y="192" fill="#3d3d3d" font-size="16" font-weight="600">产品讨论群</text>
    <text x="846" y="216" fill="#666666" font-size="12">wxid_team_product_2026</text>
    <text x="846" y="238" fill="#16a34a" font-size="12">连接正常 · 最近导出 2026-03-01 23:12</text>

    <rect x="774" y="278" width="252" height="92" rx="10" fill="#FFFFFF" stroke="rgba(0,0,0,0.08)" />
    <text x="792" y="306" fill="#999999" font-size="11">消息总数</text>
    <text x="792" y="346" fill="#3d3d3d" font-size="28" font-weight="700">32,984</text>

    <rect x="1042" y="278" width="252" height="92" rx="10" fill="#FFFFFF" stroke="rgba(0,0,0,0.08)" />
    <text x="1060" y="306" fill="#999999" font-size="11">待同步增量</text>
    <text x="1060" y="346" fill="#16a34a" font-size="28" font-weight="700">+128</text>

    <rect x="1310" y="278" width="284" height="92" rx="10" fill="#FFFFFF" stroke="rgba(0,0,0,0.08)" />
    <text x="1328" y="306" fill="#999999" font-size="11">导出目录</text>
    <text x="1328" y="334" fill="#666666" font-size="12">D:/VXdaochu/Export/产品讨论群</text>

    <rect x="774" y="388" width="820" height="220" rx="12" fill="#FFFFFF" stroke="rgba(0,0,0,0.08)" />
    <text x="792" y="420" fill="#3d3d3d" font-size="14" font-weight="600">导出格式</text>

    <rect x="792" y="438" width="92" height="32" rx="16" fill="rgba(139,115,85,0.12)" /><text x="820" y="460" fill="#8B7355" font-size="12">JSON</text>
    <rect x="894" y="438" width="92" height="32" rx="16" fill="rgba(139,115,85,0.12)" /><text x="924" y="460" fill="#8B7355" font-size="12">HTML</text>
    <rect x="996" y="438" width="92" height="32" rx="16" fill="rgba(139,115,85,0.12)" /><text x="1028" y="460" fill="#8B7355" font-size="12">CSV</text>
    <rect x="1098" y="438" width="92" height="32" rx="16" fill="rgba(139,115,85,0.12)" /><text x="1126" y="460" fill="#8B7355" font-size="12">Excel</text>
    <rect x="1200" y="438" width="92" height="32" rx="16" fill="rgba(139,115,85,0.12)" /><text x="1231" y="460" fill="#8B7355" font-size="12">SQL</text>
    <rect x="1302" y="438" width="92" height="32" rx="16" fill="rgba(139,115,85,0.12)" /><text x="1335" y="460" fill="#8B7355" font-size="12">VCF</text>
    <rect x="1404" y="438" width="132" height="32" rx="16" fill="rgba(139,115,85,0.12)" /><text x="1434" y="460" fill="#8B7355" font-size="12">ChatLab</text>

    <text x="792" y="514" fill="#666666" font-size="12">时间范围：2024-01-01 至 2026-03-02</text>
    <text x="792" y="538" fill="#666666" font-size="12">媒体选项：图片、语音、视频、表情</text>
    <text x="792" y="562" fill="#666666" font-size="12">跳过规则：无新增时自动跳过</text>

    <rect x="792" y="626" width="188" height="44" rx="10" fill="#8B7355" />
    <text x="842" y="654" fill="#fff" font-size="15" font-weight="600">导出此会话</text>
    <rect x="992" y="626" width="188" height="44" rx="10" fill="rgba(139,115,85,0.12)" stroke="rgba(0,0,0,0.08)" />
    <text x="1042" y="654" fill="#8B7355" font-size="15" font-weight="600">批量导出</text>
    <rect x="1192" y="626" width="188" height="44" rx="10" fill="rgba(139,115,85,0.12)" stroke="rgba(0,0,0,0.08)" />
    <text x="1238" y="654" fill="#8B7355" font-size="15" font-weight="600">打开目录</text>

    <rect x="774" y="686" width="820" height="230" rx="12" fill="#FFFFFF" stroke="rgba(0,0,0,0.08)" />
    <text x="792" y="718" fill="#3d3d3d" font-size="14" font-weight="600">最近导出记录</text>
    <line x1="792" y1="738" x2="1574" y2="738" stroke="rgba(0,0,0,0.08)" />
    <text x="792" y="766" fill="#666666" font-size="12">2026-03-01 23:12  ·  HTML + JSON  ·  32,856 条</text>
    <text x="792" y="792" fill="#666666" font-size="12">2026-02-28 20:45  ·  CSV         ·  32,721 条</text>
    <text x="792" y="818" fill="#666666" font-size="12">2026-02-25 09:20  ·  Excel       ·  32,312 条</text>
  
    </svg>
  